<svg xmlns="http://www.w3.org/2000/svg" viewBox="0 0 64 64">
  <rect width="64" height="64" rx="12" fill="#0a0a0a"/>
  <!-- "9" from Orbitron 700, converted to a path (SVG favicons can't load webfonts) -->
  <g transform="translate(8.97 52) scale(0.05548 -0.05548)" fill="#ff8c00">
    <path d="M173 0Q147 0 123.5 10.5Q100 21 83.0 39.5Q66 58 58 82H658Q674 82 685.5 93.5Q697 105 697 121V266Q697 282 685.5 293.5Q674 305 658 305H173Q139 305 111.5 321.5Q84 338 67.5 365.5Q51 393 51 426V599Q51 633 67.5 660.5Q84 688 111.5 704.5Q139 721 173 721H658Q691 721 718.5 704.5Q746 688 762.5 660.5Q779 633 779 599V121Q779 88 762.5 60.5Q746 33 718.5 16.5Q691 0 658 0H173ZM173 387H697V599Q697 615 685.5 626.5Q674 638 658 638H173Q157 638 145.5 626.5Q134 615 134 599V426Q134 410 145.5 398.5Q157 387 173 387Z"/>
  </g>
</svg>
